{
  "accessors": [
    {
      "bufferView": 2,
      "componentType": 5126,
      "count": 1544,
      "max": [
        1.6873711347579956,
        2.9501793384552,
        4.630858898162842
      ],
      "min": [
        -1.7276642322540283,
        -3.895416498184204,
        -0.08432795107364655
      ],
      "type": "VEC3"
    },
    {
      "bufferView": 2,
      "byteOffset": 18528,
      "componentType": 5126,
      "count": 1544,
      "max": [
        0.9998949766159058,
        0.9959326982498169,
        0.9967488646507263
      ],
      "min": [
        -0.9997990131378174,
        -0.9991952180862427,
        -0.9999946355819702
      ],
      "type": "VEC3"
    },
    {
      "bufferView": 1,
      "componentType": 5126,
      "count": 1544,
      "max": [
        0.953851580619812,
        0.9859592914581299
      ],
      "min": [
        0.014424823224544525,
        0.016076304018497467
      ],
      "type": "VEC2"
    },
    {
      "bufferView": 0,
      "componentType": 5125,
      "count": 8076,
      "type": "SCALAR"
    },
    {
      "bufferView": 2,
      "byteOffset": 37056,
      "componentType": 5126,
      "count": 1610,
      "max": [
        1.702637791633606,
        2.965601921081543,
        3.5192365646362305
      ],
      "min": [
        -1.0185189247131348,
        -2.4829518795013428,
        -0.035642340779304504
      ],
      "type": "VEC3"
    },
    {
      "bufferView": 2,
      "byteOffset": 56376,
      "componentType": 5126,
      "count": 1610,
      "max": [
        0.9998952150344849,
        0.9995595216751099,
        0.9996664524078369
      ],
      "min": [
        -0.9982823133468628,
        -0.9984102249145508,
        -0.9997415542602539
      ],
      "type": "VEC3"
    },
    {
      "bufferView": 1,
      "byteOffset": 12352,
      "componentType": 5126,
      "count": 1610,
      "max": [
        0.979038655757904,
        0.992326021194458
      ],
      "min": [
        0.01675337553024292,
        0.027738280594348907
      ],
      "type": "VEC2"
    },
    {
      "bufferView": 0,
      "byteOffset": 32304,
      "componentType": 5125,
      "count": 8604,
      "type": "SCALAR"
    },
    {
      "bufferView": 2,
      "byteOffset": 75696,
      "componentType": 5126,
      "count": 1662,
      "max": [
        1.2642167806625366,
        5.388821601867676,
        5.488872528076172
      ],
      "min": [
        -1.7439948320388794,
        -3.540900230407715,
        -0.08425863832235336
      ],
      "type": "VEC3"
    },
    {
      "bufferView": 2,
      "byteOffset": 95640,
      "componentType": 5126,
      "count": 1662,
      "max": [
        0.9991288185119629,
        0.998363196849823,
        0.9994974136352539
      ],
      "min": [
        -0.9994627237319946,
        -0.999701976776123,
        -0.9998927116394043
      ],
      "type": "VEC3"
    },
    {
      "bufferView": 1,
      "byteOffset": 25232,
      "componentType": 5126,
      "count": 1662,
      "max": [
        0.9873377084732056,
        0.9777864813804626
      ],
      "min": [
        0.04379021003842354,
        0.0362439900636673
      ],
      "type": "VEC2"
    },
    {
      "bufferView": 0,
      "byteOffset": 66720,
      "componentType": 5125,
      "count": 7932,
      "type": "SCALAR"
    },
    {
      "bufferView": 2,
      "byteOffset": 115584,
      "componentType": 5126,
      "count": 1735,
      "max": [
        1.539577603340149,
        4.510415554046631,
        5.427547931671143
      ],
      "min": [
        -1.3197674751281738,
        -3.12029767036438,
        -0.00615370599552989
      ],
      "type": "VEC3"
    },
    {
      "bufferView": 2,
      "byteOffset": 136404,
      "componentType": 5126,
      "count": 1735,
      "max": [
        0.9982030987739563,
        0.9989920854568481,
        0.9999920129776001
      ],
      "min": [
        -0.9993623495101929,
        -0.9983170032501221,
        -0.9999990463256836
      ],
      "type": "VEC3"
    },
    {
      "bufferView": 1,
      "byteOffset": 38528,
      "componentType": 5126,
      "count": 1735,
      "max": [
        0.9873377084732056,
        0.9746780395507813
      ],
      "min": [
        0.024265341460704803,
        0.0214129239320755
      ],
      "type": "VEC2"
    },
    {
      "bufferView": 0,
      "byteOffset": 98448,
      "componentType": 5125,
      "count": 8742,
      "type": "SCALAR"
    },
    {
      "bufferView": 2,
      "byteOffset": 157224,
      "componentType": 5126,
      "count": 2021,
      "max": [
        2.1304328441619873,
        2.347823143005371,
        7.202439308166504
      ],
      "min": [
        -2.1118385791778564,
        -3.199188232421875,
        -0.0010396440047770739
      ],
      "type": "VEC3"
    },
    {
      "bufferView": 2,
      "byteOffset": 181476,
      "componentType": 5126,
      "count": 2021,
      "max": [
        0.9996993541717529,
        0.9997897148132324,
        0.9999715089797974
      ],
      "min": [
        -0.9995230436325073,
        -0.9992399215698242,
        -1.0
      ],
      "type": "VEC3"
    },
    {
      "bufferView": 1,
      "byteOffset": 52408,
      "componentType": 5126,
      "count": 2021,
      "max": [
        0.953851580619812,
        0.9849182367324829
      ],
      "min": [
        0.017758823931217194,
        0.05019158869981766
      ],
      "type": "VEC2"
    },
    {
      "bufferView": 0,
      "byteOffset": 133416,
      "componentType": 5125,
      "count": 10326,
      "type": "SCALAR"
    }
  ],
  "asset": {
    "extras": {
      "author": "Omabuarts Studio (https://sketchfab.com/omabuarts)",
      "license": "SKETCHFAB Standard (https://sketchfab.com/licenses)",
      "source": "https://sketchfab.com/3d-models/forest-animals-wild-series-296f4c50468a4f66b8ff2b0a31aadda6",
      "title": "Forest Animals - Wild Series"
    },
    "generator": "Sketchfab-12.66.0",
    "version": "2.0"
  },
  "bufferViews": [
    {
      "buffer": 0,
      "byteLength": 174720,
      "name": "floatBufferViews",
      "target": 34963
    },
    {
      "buffer": 0,
      "byteLength": 68576,
      "byteOffset": 174720,
      "byteStride": 8,
      "name": "floatBufferViews",
      "target": 34962
    },
    {
      "buffer": 0,
      "byteLength": 205728,
      "byteOffset": 243296,
      "byteStride": 12,
      "name": "floatBufferViews",
      "target": 34962
    }
  ],
  "buffers": [
    {
      "byteLength": 449024,
      "uri": "scene.bin"
    }
  ],
  "images": [
    {
      "uri": "textures/Mat_Bear_baseColor.jpeg"
    },
    {
      "uri": "textures/Mat_RedPanda_baseColor.jpeg"
    },
    {
      "uri": "textures/Mat_Wolf_baseColor.png"
    },
    {
      "uri": "textures/Mat_Fox_baseColor.png"
    },
    {
      "uri": "textures/Mat_Deer_baseColor.jpeg"
    }
  ],
  "materials": [
    {
      "emissiveFactor": [
        1.0,
        1.0,
        1.0
      ],
      "emissiveTexture": {
        "index": 0
      },
      "name": "Mat_Bear",
      "pbrMetallicRoughness": {
        "baseColorTexture": {
          "index": 0
        },
        "metallicFactor": 0.0,
        "roughnessFactor": 0.9
      }
    },
    {
      "emissiveFactor": [
        1.0,
        1.0,
        1.0
      ],
      "emissiveTexture": {
        "index": 1
      },
      "name": "Mat_RedPanda",
      "pbrMetallicRoughness": {
        "baseColorTexture": {
          "index": 1
        },
        "metallicFactor": 0.0,
        "roughnessFactor": 0.9
      }
    },
    {
      "emissiveFactor": [
        1.0,
        1.0,
        1.0
      ],
      "emissiveTexture": {
        "index": 2
      },
      "name": "Mat_Wolf",
      "pbrMetallicRoughness": {
        "baseColorTexture": {
          "index": 2
        },
        "metallicFactor": 0.0,
        "roughnessFactor": 0.9
      }
    },
    {
      "emissiveFactor": [
        1.0,
        1.0,
        1.0
      ],
      "emissiveTexture": {
        "index": 3
      },
      "name": "Mat_Fox",
      "pbrMetallicRoughness": {
        "baseColorTexture": {
          "index": 3
        },
        "metallicFactor": 0.0,
        "roughnessFactor": 0.9
      }
    },
    {
      "emissiveFactor": [
        1.0,
        1.0,
        1.0
      ],
      "emissiveTexture": {
        "index": 4
      },
      "name": "Mat_Deer",
      "pbrMetallicRoughness": {
        "baseColorTexture": {
          "index": 4
        },
        "metallicFactor": 0.0,
        "roughnessFactor": 0.9
      }
    }
  ],
  "meshes": [
    {
      "name": "Bear.HD_Mat_Bear_0",
      "primitives": [
        {
          "attributes": {
            "NORMAL": 1,
            "POSITION": 0,
            "TEXCOORD_0": 2
          },
          "indices": 3,
          "material": 0,
          "mode": 4
        }
      ]
    },
    {
      "name": "RedPanda.HD_Mat_RedPanda_0",
      "primitives": [
        {
          "attributes": {
            "NORMAL": 5,
            "POSITION": 4,
            "TEXCOORD_0": 6
          },
          "indices": 7,
          "material": 1,
          "mode": 4
        }
      ]
    },
    {
      "name": "Wolf.HD_Mat_Wolf_0",
      "primitives": [
        {
          "attributes": {
            "NORMAL": 9,
            "POSITION": 8,
            "TEXCOORD_0": 10
          },
          "indices": 11,
          "material": 2,
          "mode": 4
        }
      ]
    },
    {
      "name": "Fox.HD_Mat_Fox_0",
      "primitives": [
        {
          "attributes": {
            "NORMAL": 13,
            "POSITION": 12,
            "TEXCOORD_0": 14
          },
          "indices": 15,
          "material": 3,
          "mode": 4
        }
      ]
    },
    {
      "name": "Deer.HD_Mat_Deer_0",
      "primitives": [
        {
          "attributes": {
            "NORMAL": 17,
            "POSITION": 16,
            "TEXCOORD_0": 18
          },
          "indices": 19,
          "material": 4,
          "mode": 4
        }
      ]
    }
  ],
  "nodes": [
    {
      "children": [
        1
      ],
      "matrix": [
        0.1598382294178009,
        0.0,
        0.0,
        0.0,
        0.0,
        3.549121650299212e-17,
        -0.1598382294178009,
        0.0,
        0.0,
        0.1598382294178009,
        3.549121650299212e-17,
        0.0,
        0.0,
        0.0,
        0.0,
        1.0
      ],
      "name": "Sketchfab_model"
    },
    {
      "children": [
        2
      ],
      "matrix": [
        1.0,
        0.0,
        0.0,
        0.0,
        0.0,
        0.0,
        1.0,
        0.0,
        0.0,
        -1.0,
        0.0,
        0.0,
        0.0,
        0.0,
        0.0,
        1.0
      ],
      "name": "ce38e9c9b1234cd2ac3e1f833fe598cd.fbx"
    },
    {
      "children": [
        3,
        5,
        7,
        9,
        11
      ],
      "name": "RootNode"
    },
    {
      "children": [
        4
      ],
      "matrix": [
        44.46261933337457,
        -7.216449660063518e-15,
        122.16004044701124,
        0.0,
        122.16004044701111,
        -5.682480679336521e-06,
        -44.462619333374526,
        0.0,
        5.339785160152211e-06,
        129.99999999999986,
        -1.943522878189441e-06,
        0.0,
        -578.7258911132813,
        0.0,
        -465.6854248046875,
        1.0
      ],
      "name": "Bear.HD"
    },
    {
      "mesh": 0,
      "name": "Bear.HD_Mat_Bear_0"
    },
    {
      "children": [
        6
      ],
      "matrix": [
        109.58142462908178,
        -1.5265567647387086e-15,
        9.587129639664104,
        0.0,
        9.587129639664093,
        -4.8082532160069566e-06,
        -109.58142462908165,
        0.0,
        4.190667336062548e-07,
        109.99999999999989,
        -4.789956038475651e-06,
        0.0,
        440.512939453125,
        0.0,
        70.71066284179688,
        1.0
      ],
      "name": "RedPanda.HD"
    },
    {
      "mesh": 1,
      "name": "RedPanda.HD_Mat_RedPanda_0"
    },
    {
      "children": [
        8
      ],
      "matrix": [
        70.70664159749504,
        6.1062270589548346e-15,
        -84.26489489977568,
        0.0,
        -84.2648948997756,
        -4.808253240431865e-06,
        -70.70664159749498,
        0.0,
        -3.6833354177812083e-06,
        109.9999999999999,
        -3.0906853698553505e-06,
        0.0,
        820.7086791992188,
        0.0,
        -233.57296752929688,
        1.0
      ],
      "name": "Wolf.HD"
    },
    {
      "mesh": 2,
      "name": "Wolf.HD_Mat_Wolf_0"
    },
    {
      "children": [
        10
      ],
      "matrix": [
        75.23319653871653,
        -1.6653345369377348e-14,
        65.87841936906844,
        0.0,
        65.87841936906838,
        -4.371138961900556e-06,
        -75.23319653871646,
        0.0,
        2.8796372675277127e-06,
        99.99999999999989,
        -3.2885475453880986e-06,
        0.0,
        75.3138198852539,
        0.0,
        0.0,
        1.0
      ],
      "name": "Fox.HD"
    },
    {
      "mesh": 3,
      "name": "Fox.HD_Mat_Fox_0"
    },
    {
      "children": [
        12
      ],
      "matrix": [
        71.07540810547509,
        -5.551115123125783e-15,
        70.34405705274729,
        0.0,
        70.34405705274722,
        -4.371138961900556e-06,
        -71.07540810547502,
        0.0,
        3.0748364965305086e-06,
        99.9999999999999,
        -3.1068048578219987e-06,
        0.0,
        -276.4903259277344,
        0.0,
        -110.25669860839844,
        1.0
      ],
      "name": "Deer.HD"
    },
    {
      "mesh": 4,
      "name": "Deer.HD_Mat_Deer_0"
    }
  ],
  "samplers": [
    {
      "magFilter": 9729,
      "minFilter": 9987,
      "wrapS": 10497,
      "wrapT": 10497
    }
  ],
  "scene": 0,
  "scenes": [
    {
      "name": "Sketchfab_Scene",
      "nodes": [
        0
      ]
    }
  ],
  "textures": [
    {
      "sampler": 0,
      "source": 0
    },
    {
      "sampler": 0,
      "source": 1
    },
    {
      "sampler": 0,
      "source": 2
    },
    {
      "sampler": 0,
      "source": 3
    },
    {
      "sampler": 0,
      "source": 4
    }
  ]
}
